<svg width="12" height="12" viewBox="0 0 12 12" fill="none" xmlns="http://www.w3.org/2000/svg">
<path d="M7.0223 0.484863C6.6855 0.484863 6.3694 0.664293 6.1666 0.923053C5.9639 1.18181 5.8521 1.49723 5.7707 1.82965C5.6414 2.36417 5.6014 2.95724 5.5919 3.4918C4.6451 3.5579 3.7878 3.8525 3.0758 4.3077C2.78678 4.0527 2.43874 3.9111 2.10507 3.9148C1.7251 3.9186 1.36428 4.0905 1.09607 4.4437C0.58358 5.118 0.642659 6.221 1.23656 6.8764C1.19984 7.0785 1.1727 7.2863 1.1727 7.4959C1.1727 9.7171 3.3344 11.5152 6.0006 11.5152C8.6668 11.5152 10.8284 9.7152 10.8284 7.4959C10.8284 7.2863 10.8013 7.0785 10.7646 6.8764C11.3585 6.221 11.4176 5.118 10.9051 4.4437C10.6369 4.0905 10.2761 3.9186 9.8961 3.9148C9.5624 3.9111 9.2144 4.0527 8.9254 4.3077C8.2165 3.8544 7.364 3.5597 6.4221 3.4918C6.4348 2.99879 6.4684 2.48694 6.5625 2.10163C6.6216 1.85987 6.6919 1.68422 6.7669 1.58789C6.8419 1.49157 6.8962 1.4519 7.0223 1.4519C7.2953 1.4519 7.3305 1.54445 7.4949 1.76921C7.5779 1.88254 7.6737 2.0242 7.827 2.16207C7.9803 2.29995 8.207 2.41894 8.4528 2.41894V1.4519C8.3842 1.4519 8.3714 1.45002 8.3251 1.40657C8.2788 1.36313 8.2149 1.26303 8.1207 1.13459C7.9324 0.875833 7.5668 0.484863 7.0223 0.484863ZM9.679 0.575523C9.0435 0.575523 8.5295 1.1837 8.5295 1.93542C8.5295 2.68715 9.0435 3.2953 9.679 3.2953C10.3144 3.2953 10.8284 2.68715 10.8284 1.93542C10.8284 1.1837 10.3144 0.575523 9.679 0.575523ZM9.679 1.05904C10.0877 1.05904 10.4197 1.4519 10.4197 1.93542C10.4197 2.41894 10.0877 2.8118 9.679 2.8118C9.2702 2.8118 8.9382 2.41894 8.9382 1.93542C8.9382 1.4519 9.2702 1.05904 9.679 1.05904ZM6.0006 4.2473C8.2628 4.2473 10.1771 5.7375 10.1771 7.4959C10.1771 9.2562 8.2628 10.7446 6.0006 10.7446C3.7383 10.7446 1.82408 9.2562 1.82408 7.4959C1.82408 5.7375 3.7383 4.2473 6.0006 4.2473ZM2.11784 4.6854C2.23119 4.6873 2.34933 4.7176 2.46269 4.7761C2.05238 5.1444 1.72669 5.5675 1.50478 6.0453C1.35151 5.6714 1.39302 5.2049 1.58141 4.9574C1.71871 4.7761 1.90869 4.6836 2.11784 4.6854ZM9.8833 4.6854C10.0925 4.6836 10.2824 4.7761 10.4197 4.9574C10.6081 5.2049 10.6496 5.6714 10.4964 6.0453C10.2745 5.5675 9.9488 5.1444 9.5385 4.7761C9.6518 4.7176 9.77 4.6873 9.8833 4.6854ZM4.3657 5.8942C3.957 5.8942 3.625 6.2871 3.625 6.7706C3.625 7.2541 3.957 7.647 4.3657 7.647C4.7744 7.647 5.1065 7.2541 5.1065 6.7706C5.1065 6.2871 4.7744 5.8942 4.3657 5.8942ZM7.6354 5.8942C7.2267 5.8942 6.8946 6.2871 6.8946 6.7706C6.8946 7.2541 7.2267 7.647 7.6354 7.647C8.0441 7.647 8.3762 7.2541 8.3762 6.7706C8.3762 6.2871 8.0441 5.8942 7.6354 5.8942ZM3.9698 8.8709C4.23 9.5074 5.0347 10.125 6.0006 10.125C6.9665 10.125 7.7839 9.5074 8.0441 8.8709C7.5715 9.2317 6.826 9.4753 6.0006 9.4753C5.1752 9.4753 4.4424 9.2317 3.9698 8.8709Z" fill="white"/>
</svg>
