<svg width="12" height="8" viewBox="0 0 12 8" fill="none" xmlns="http://www.w3.org/2000/svg">
<path d="M11.6752 6.4703C11.6442 6.4206 11.452 6.0215 10.5275 5.2012C9.5597 4.3423 9.6897 4.4817 10.8554 2.9965C11.5654 2.092 11.8493 1.5396 11.7604 1.3035C11.6759 1.0784 11.1537 1.1378 11.1537 1.1378L9.4174 1.1474C9.4174 1.1474 9.2888 1.1309 9.1928 1.1854C9.0996 1.2393 9.0396 1.3635 9.0396 1.3635C9.0396 1.3635 8.7644 2.0637 8.3975 2.6589C7.624 3.9148 7.3141 3.9811 7.1877 3.9031C6.8938 3.7215 6.9674 3.1726 6.9674 2.7832C6.9674 1.5659 7.1603 1.0584 6.5911 0.92716C6.4019 0.88366 6.2632 0.85466 5.78 0.84983C5.1603 0.84361 4.6352 0.8519 4.3383 0.99069C4.1404 1.0832 3.988 1.2897 4.0812 1.3014C4.1961 1.3159 4.4561 1.3684 4.594 1.5479C4.7724 1.7792 4.7659 2.2998 4.7659 2.2998C4.7659 2.2998 4.8685 3.7326 4.5269 3.9107C4.2921 4.0329 3.9707 3.7837 3.2809 2.6437C2.92774 2.0602 2.6605 1.4146 2.6605 1.4146C2.6605 1.4146 2.60922 1.2945 2.51749 1.2303C2.40626 1.1523 2.25024 1.1274 2.25024 1.1274L0.599118 1.1371C0.599118 1.1371 0.351378 1.144 0.260378 1.2469C0.179478 1.3387 0.253878 1.5279 0.253878 1.5279C0.253878 1.5279 1.54675 4.4189 3.0101 5.8765C4.3528 7.2126 5.8768 7.1249 5.8768 7.1249H6.5673C6.5673 7.1249 6.776 7.1028 6.8822 6.993C6.9804 6.8922 6.9768 6.703 6.9768 6.703C6.9768 6.703 6.9631 5.8171 7.3936 5.6866C7.8175 5.5582 8.3621 6.5428 8.9392 6.9219C9.3755 7.2084 9.707 7.1456 9.707 7.1456L11.2505 7.1249C11.2505 7.1249 12.058 7.0772 11.6752 6.4703Z" fill="white"/>
</svg>
